# xmcd
#
# Track frame offsets:
#	150
#	22435
#	46116
#	67076
#	90108
#	105860
#	118808
#	135553
#	152908
#	174791
#	190098
#	210678
#	228002
#	251341
#	272521
#	288967
#
# Disc length: 4122 seconds
#
# Revision: 1
# Processed by: cddbd v1.5.2PL0 Copyright (c) Steve Scherf et al.
# Submitted via: audiograbber 1.83.01
#
DISCID=cd101810
DTITLE=Russ Taff - Faroe Islands
DYEAR=2009
DGENRE=Blues Gospel Rock
TTITLE0=Here Comes Jesus
TTITLE1=Harvest
TTITLE2=Heaven
TTITLE3=Missionary Man
TTITLE4=God's Love
TTITLE5=Lifting Me Higher
TTITLE6=Ecclesiastes
TTITLE7=You're Still So Good
TTITLE8=Man Of Sorrow
TTITLE9=Mend This Broken Heart
TTITLE10=Help Me
TTITLE11=Rock Bound
TTITLE12=Go Play In The Sun
TTITLE13=I Believe In You
TTITLE14=Love Is A Cross
TTITLE15=Day By Day
EXTD=
EXTT0=
EXTT1=
EXTT2=
EXTT3=
EXTT4=
EXTT5=
EXTT6=
EXTT7=
EXTT8=
EXTT9=
EXTT10=
EXTT11=
EXTT12=
EXTT13=
EXTT14=
EXTT15=
PLAYORDER=
